<?xml version="1.0" encoding="UTF-8"?>
<svg xmlns="http://www.w3.org/2000/svg" xmlns:xlink="http://www.w3.org/1999/xlink" width="130px" height="px" viewBox="0 0 130 130" version="1.1">
<g id="surface1">
<path style=" stroke:none;fill-rule:nonzero;fill:rgb(0%,0%,0%);fill-opacity:1;" d="M 54.167969 78.480469 C 54.167969 75.492188 51.742188 73.066406 48.75 73.066406 C 45.757812 73.066406 43.332031 75.492188 43.332031 78.480469 C 43.332031 81.472656 45.757812 83.898438 48.75 83.898438 C 51.742188 83.898438 54.167969 81.472656 54.167969 78.480469 Z M 54.167969 78.480469 "/>
<path style=" stroke:none;fill-rule:nonzero;fill:rgb(0%,0%,0%);fill-opacity:1;" d="M 86.667969 78.480469 C 86.667969 75.492188 84.242188 73.066406 81.25 73.066406 C 78.257812 73.066406 75.832031 75.492188 75.832031 78.480469 C 75.832031 81.472656 78.257812 83.898438 81.25 83.898438 C 84.242188 83.898438 86.667969 81.472656 86.667969 78.480469 Z M 86.667969 78.480469 "/>
<path style=" stroke:none;fill-rule:nonzero;fill:rgb(0%,0%,0%);fill-opacity:1;" d="M 89.304688 56.507812 C 94.273438 52.433594 97.5 44.585938 97.5 35.148438 C 97.5 21.253906 90.511719 10.773438 81.25 10.773438 C 71.988281 10.773438 65 21.253906 65 35.148438 C 65 40.300781 65.964844 44.984375 67.644531 48.835938 C 66.765625 48.78125 65.894531 48.691406 65 48.691406 C 64.105469 48.691406 63.234375 48.78125 62.355469 48.835938 C 64.035156 44.984375 65 40.300781 65 35.148438 C 65 21.253906 58.011719 10.773438 48.75 10.773438 C 39.488281 10.773438 32.5 21.253906 32.5 35.148438 C 32.5 44.585938 35.726562 52.4375 40.695312 56.507812 C 29.121094 64.550781 21.667969 77.527344 21.667969 89.316406 C 21.667969 107.414062 38.675781 119.105469 65 119.105469 C 91.324219 119.105469 108.332031 107.414062 108.332031 89.316406 C 108.332031 77.527344 100.878906 64.550781 89.304688 56.507812 Z M 81.25 21.605469 C 82.824219 21.605469 86.667969 26.351562 86.667969 35.148438 C 86.667969 43.945312 82.824219 48.691406 81.25 48.691406 C 79.675781 48.691406 75.832031 43.945312 75.832031 35.148438 C 75.832031 26.351562 79.675781 21.605469 81.25 21.605469 Z M 48.75 21.605469 C 50.324219 21.605469 54.167969 26.351562 54.167969 35.148438 C 54.167969 43.945312 50.324219 48.691406 48.75 48.691406 C 47.175781 48.691406 43.332031 43.945312 43.332031 35.148438 C 43.332031 26.351562 47.175781 21.605469 48.75 21.605469 Z M 70.417969 108.0625 L 70.417969 97.441406 L 75.832031 97.441406 L 75.832031 86.605469 L 54.167969 86.605469 L 54.167969 97.441406 L 59.582031 97.441406 L 59.582031 108.0625 C 45.664062 107.003906 32.5 101.691406 32.5 89.316406 C 32.5 75.824219 46.996094 59.523438 65 59.523438 C 83.003906 59.523438 97.5 75.824219 97.5 89.316406 C 97.5 101.691406 84.335938 107.003906 70.417969 108.0625 Z M 70.417969 108.0625 "/>
</g>
</svg>
