<?xml version="1.0" encoding="UTF-8"?>
<svg xmlns="http://www.w3.org/2000/svg" xmlns:xlink="http://www.w3.org/1999/xlink" width="130px" height="px" viewBox="0 0 130 130" version="1.1">
<g id="surface1">
<path style=" stroke:none;fill-rule:nonzero;fill:rgb(0%,0%,0%);fill-opacity:1;" d="M 48.695312 42.789062 C 45.191406 42.789062 42.335938 45.640625 42.335938 49.148438 C 42.335938 50.847656 42.996094 52.445312 44.199219 53.648438 C 45.398438 54.847656 46.996094 55.511719 48.695312 55.511719 C 52.203125 55.507812 55.054688 52.65625 55.054688 49.148438 C 55.054688 45.644531 52.203125 42.789062 48.695312 42.789062 Z M 48.695312 42.789062 "/>
<path style=" stroke:none;fill-rule:nonzero;fill:rgb(0%,0%,0%);fill-opacity:1;" d="M 83.679688 42.789062 C 80.171875 42.789062 77.320312 45.640625 77.316406 49.148438 C 77.316406 52.65625 80.171875 55.511719 83.679688 55.511719 C 87.1875 55.511719 90.039062 52.65625 90.039062 49.148438 C 90.039062 45.644531 87.1875 42.789062 83.679688 42.789062 Z M 83.679688 42.789062 "/>
<path style=" stroke:none;fill-rule:nonzero;fill:rgb(0%,0%,0%);fill-opacity:1;" d="M 72.46875 93.535156 C 71.699219 93.261719 71.148438 92.703125 70.957031 92.40625 L 70.957031 73.5 C 73.304688 71.386719 75.351562 68.125 76.363281 65.050781 C 77.136719 62.457031 75.140625 60.3125 71.910156 60.28125 C 68.09375 60.28125 64.277344 60.28125 60.460938 60.28125 C 57.234375 60.3125 55.238281 62.457031 56.011719 65.050781 C 57.023438 68.125 59.066406 71.386719 61.417969 73.5 L 61.417969 92.40625 C 61.222656 92.703125 60.675781 93.261719 59.90625 93.535156 L 48.832031 97.078125 L 51.738281 106.167969 L 62.871094 102.605469 L 62.960938 102.574219 C 64.128906 102.175781 65.214844 101.613281 66.1875 100.929688 C 67.160156 101.613281 68.246094 102.175781 69.414062 102.574219 L 80.632812 106.167969 L 83.542969 97.078125 Z M 72.46875 93.535156 "/>
<path style=" stroke:none;fill-rule:nonzero;fill:rgb(0%,0%,0%);fill-opacity:1;" d="M 82.085938 65.050781 L 107.53125 65.050781 L 107.53125 74.59375 L 82.085938 74.59375 Z M 82.085938 65.050781 "/>
<path style=" stroke:none;fill-rule:nonzero;fill:rgb(0%,0%,0%);fill-opacity:1;" d="M 80.574219 87.066406 L 83.59375 78.015625 L 102.675781 84.375 L 99.660156 93.425781 Z M 80.574219 87.066406 "/>
<path style=" stroke:none;fill-rule:nonzero;fill:rgb(0%,0%,0%);fill-opacity:1;" d="M 24.84375 65.050781 L 50.285156 65.050781 L 50.285156 74.59375 L 24.84375 74.59375 Z M 24.84375 65.050781 "/>
<path style=" stroke:none;fill-rule:nonzero;fill:rgb(0%,0%,0%);fill-opacity:1;" d="M 29.695312 84.382812 L 48.78125 78.019531 L 51.796875 87.070312 L 32.714844 93.433594 Z M 29.695312 84.382812 "/>
<path style=" stroke:none;fill-rule:nonzero;fill:rgb(0%,0%,0%);fill-opacity:1;" d="M 124.558594 28.433594 C 130.664062 13.859375 131.53125 6.792969 127.664062 3.222656 C 123.796875 -0.351562 116.820312 1.082031 102.78125 8.332031 C 97.492188 11.0625 92.496094 13.972656 89.460938 15.789062 C 82.316406 12.703125 74.449219 10.988281 66.1875 10.988281 C 57.089844 10.988281 48.472656 13.0625 40.773438 16.765625 C 37.667969 15.070312 32.558594 12.359375 27.164062 9.839844 C 12.847656 3.160156 5.820312 2.007812 2.097656 5.730469 C -1.625 9.453125 -0.472656 16.484375 6.207031 30.796875 C 8.726562 36.195312 11.433594 41.304688 13.128906 44.410156 C 9.429688 52.105469 7.351562 60.726562 7.351562 69.820312 C 7.351562 102.261719 33.746094 128.65625 66.1875 128.65625 C 98.628906 128.65625 125.019531 102.261719 125.019531 69.820312 C 125.019531 59.890625 122.542969 50.527344 118.183594 42.316406 C 119.753906 39.144531 122.257812 33.929688 124.558594 28.433594 Z M 105.285156 17.789062 C 113.53125 13.410156 118.015625 11.792969 120.296875 11.199219 C 119.890625 13.519531 118.640625 18.105469 114.949219 26.644531 C 113.976562 28.898438 112.980469 31.078125 112.0625 33.03125 C 108.394531 28.464844 104.054688 24.453125 99.199219 21.148438 C 101.058594 20.085938 103.136719 18.929688 105.285156 17.789062 Z M 9.777344 13.410156 C 12.074219 13.910156 16.609375 15.339844 24.992188 19.371094 C 27.203125 20.433594 29.34375 21.511719 31.257812 22.507812 C 26.542969 26 22.363281 30.175781 18.875 34.890625 C 17.886719 32.992188 16.816406 30.871094 15.757812 28.671875 C 11.710938 20.261719 10.277344 15.714844 9.777344 13.410156 Z M 66.1875 119.113281 C 39.007812 119.113281 16.894531 97 16.894531 69.820312 C 16.894531 42.640625 39.007812 20.527344 66.1875 20.527344 C 93.367188 20.527344 115.480469 42.640625 115.480469 69.820312 C 115.480469 97.003906 93.367188 119.113281 66.1875 119.113281 Z M 66.1875 119.113281 "/>
</g>
</svg>
