<?xml version="1.0" encoding="UTF-8"?>
<svg xmlns="http://www.w3.org/2000/svg" xmlns:xlink="http://www.w3.org/1999/xlink" width="130px" height="px" viewBox="0 0 130 130" version="1.1">
<g id="surface1">
<path style=" stroke:none;fill-rule:nonzero;fill:rgb(0%,0%,0%);fill-opacity:1;" d="M 111.582031 12.96875 C 110.050781 9.597656 108.042969 6.460938 105.257812 4.03125 C 102.5 1.601562 98.820312 -0.0195312 94.691406 0 C 92.585938 0 90.597656 0.441406 88.839844 1.207031 C 85.746094 2.550781 83.414062 4.785156 81.625 7.183594 C 78.945312 10.789062 77.359375 14.863281 76.351562 18.078125 C 76.085938 18.945312 75.863281 19.742188 75.675781 20.457031 L 54.320312 20.457031 C 53.78125 18.347656 52.898438 15.488281 51.511719 12.507812 C 50.167969 9.65625 48.375 6.679688 45.757812 4.25 C 44.453125 3.039062 42.925781 1.96875 41.160156 1.207031 C 39.402344 0.441406 37.410156 -0.00390625 35.308594 0 C 31.203125 -0.0234375 27.535156 1.558594 24.765625 3.945312 C 20.589844 7.550781 18.105469 12.683594 16.480469 17.988281 C 14.875 23.320312 14.191406 28.894531 14.1875 33.65625 C 14.1875 40.914062 14.1875 69.289062 14.1875 79.847656 C 14.191406 83.890625 14.816406 88.914062 16.375 94.292969 C 18.714844 102.347656 23.175781 111.242188 31.019531 118.214844 C 38.839844 125.195312 50.066406 130.023438 65 130 C 74.957031 130.003906 83.261719 127.890625 90.015625 124.378906 C 100.164062 119.109375 106.65625 110.808594 110.53125 102.523438 C 114.414062 94.203125 115.800781 85.898438 115.8125 79.847656 C 115.8125 69.289062 115.8125 40.914062 115.8125 33.65625 C 115.792969 27.511719 114.613281 19.726562 111.582031 12.96875 Z M 107.894531 79.847656 C 107.894531 83.066406 107.367188 87.445312 106.019531 92.085938 C 103.996094 99.066406 100.152344 106.597656 93.726562 112.289062 C 87.28125 117.976562 78.277344 122.054688 65 122.082031 C 56.148438 122.078125 49.195312 120.234375 43.636719 117.351562 C 35.316406 113.027344 29.980469 106.261719 26.640625 99.164062 C 24.480469 94.578125 23.21875 89.863281 22.601562 85.789062 C 25.789062 85.789062 31.351562 85.789062 38.996094 85.789062 C 51.550781 85.789062 59.917969 73.707031 59.917969 63.941406 C 59.917969 56.429688 59.917969 36.96875 59.917969 28.375 L 82.230469 28.375 L 82.765625 25.050781 C 82.773438 24.945312 83.628906 20.089844 85.761719 15.652344 C 86.8125 13.433594 88.179688 11.355469 89.6875 9.996094 C 90.445312 9.3125 91.222656 8.796875 92.023438 8.457031 C 92.835938 8.113281 93.679688 7.921875 94.691406 7.917969 C 96.835938 7.941406 98.433594 8.621094 100.066406 10.011719 C 102.492188 12.074219 104.613281 16 105.9375 20.472656 C 107.285156 24.921875 107.898438 29.847656 107.894531 33.65625 C 107.894531 40.914062 107.894531 69.289062 107.894531 79.847656 Z M 107.894531 79.847656 "/>
<path style=" stroke:none;fill-rule:nonzero;fill:rgb(0%,0%,0%);fill-opacity:1;" d="M 64.339844 89.085938 C 58.507812 89.085938 53.78125 92.632812 53.78125 97.003906 C 53.78125 101.378906 58.507812 104.925781 64.339844 104.925781 C 70.171875 104.925781 74.898438 101.378906 74.898438 97.003906 C 74.898438 92.632812 70.171875 89.085938 64.339844 89.085938 Z M 64.339844 89.085938 "/>
<path style=" stroke:none;fill-rule:nonzero;fill:rgb(0%,0%,0%);fill-opacity:1;" d="M 91.398438 63.351562 C 91.398438 59.707031 88.441406 56.75 84.796875 56.75 C 81.152344 56.75 78.199219 59.707031 78.199219 63.351562 C 78.199219 66.996094 81.152344 69.949219 84.796875 69.949219 C 88.441406 69.949219 91.398438 66.996094 91.398438 63.351562 Z M 91.398438 63.351562 "/>
<path style=" stroke:none;fill-rule:nonzero;fill:rgb(0%,0%,0%);fill-opacity:1;" d="M 94.472656 18.039062 C 90.078125 18.039062 89.195312 27.277344 89.195312 27.277344 L 98.875 27.277344 C 98.875 27.277344 98.871094 18.039062 94.472656 18.039062 Z M 94.472656 18.039062 "/>
</g>
</svg>
