<?xml version="1.0" encoding="UTF-8"?>
<svg xmlns="http://www.w3.org/2000/svg" xmlns:xlink="http://www.w3.org/1999/xlink" width="130px" height="px" viewBox="0 0 130 130" version="1.1">
<g id="surface1">
<path style=" stroke:none;fill-rule:nonzero;fill:rgb(0%,0%,0%);fill-opacity:1;" d="M 128.644531 31.144531 C 128.644531 13.972656 114.671875 0 97.5 0 C 87.746094 0 78.726562 4.476562 72.847656 12.109375 C 70.285156 11.625 67.660156 11.378906 65 11.378906 C 62.335938 11.378906 59.714844 11.625 57.152344 12.109375 C 51.273438 4.476562 42.253906 0 32.5 0 C 15.328125 0 1.355469 13.972656 1.355469 31.144531 C 1.355469 45.007812 10.617188 57.1875 23.71875 61.03125 C 24.6875 66.308594 26.65625 71.320312 29.527344 75.832031 L 18.957031 75.832031 L 18.957031 83.957031 L 36.234375 83.957031 L 42.121094 89.847656 L 31.617188 92.179688 L 33.382812 100.113281 L 48.933594 96.65625 L 59.3125 107.039062 C 55.449219 109.085938 52.8125 113.144531 52.8125 117.8125 C 52.8125 124.53125 58.28125 130 65 130 C 71.71875 130 77.1875 124.53125 77.1875 117.8125 C 77.1875 113.144531 74.550781 109.085938 70.6875 107.039062 L 81.070312 96.65625 L 96.617188 100.113281 L 98.382812 92.179688 L 87.878906 89.847656 L 93.765625 83.957031 L 111.042969 83.957031 L 111.042969 75.832031 L 100.457031 75.832031 C 103.363281 71.25 105.296875 66.21875 106.253906 61.042969 C 119.386719 57.210938 128.644531 45.070312 128.644531 31.144531 Z M 23.039062 52.136719 C 14.957031 48.480469 9.480469 40.3125 9.480469 31.144531 C 9.480469 18.453125 19.804688 8.125 32.5 8.125 C 38.625 8.125 44.355469 10.515625 48.605469 14.691406 C 43.703125 16.769531 39.195312 19.792969 35.316406 23.671875 C 27.675781 31.3125 23.34375 41.382812 23.039062 52.136719 Z M 65 121.875 C 62.761719 121.875 60.9375 120.050781 60.9375 117.8125 C 60.9375 115.574219 62.761719 113.75 65 113.75 C 67.238281 113.75 69.0625 115.574219 69.0625 117.8125 C 69.0625 120.050781 67.238281 121.875 65 121.875 Z M 90.3125 75.832031 L 73.125 75.832031 L 73.125 83.957031 L 82.277344 83.957031 L 78.476562 87.757812 L 74.007812 86.761719 L 72.445312 93.789062 L 65 101.234375 L 57.554688 93.789062 L 55.992188 86.761719 L 51.523438 87.757812 L 47.726562 83.957031 L 56.875 83.957031 L 56.875 75.832031 L 39.683594 75.832031 C 34.164062 69.632812 31.144531 61.726562 31.144531 53.355469 C 31.144531 44.3125 34.667969 35.8125 41.0625 29.417969 C 47.457031 23.023438 55.957031 19.503906 65 19.503906 C 74.042969 19.503906 82.542969 23.023438 88.9375 29.417969 C 101.660156 42.140625 102.117188 62.554688 90.3125 75.832031 Z M 94.683594 23.671875 C 90.804688 19.792969 86.296875 16.769531 81.394531 14.691406 C 85.644531 10.515625 91.375 8.125 97.5 8.125 C 110.195312 8.125 120.519531 18.453125 120.519531 31.144531 C 120.519531 40.355469 115.042969 48.503906 106.941406 52.148438 C 106.644531 41.804688 102.5625 31.550781 94.683594 23.671875 Z M 94.683594 23.671875 "/>
<path style=" stroke:none;fill-rule:nonzero;fill:rgb(0%,0%,0%);fill-opacity:1;" d="M 55.519531 59.582031 C 52.535156 59.582031 50.105469 62.011719 50.105469 65 C 50.105469 67.988281 52.535156 70.417969 55.519531 70.417969 C 58.507812 70.417969 60.9375 67.988281 60.9375 65 C 60.9375 62.011719 58.507812 59.582031 55.519531 59.582031 Z M 55.519531 59.582031 "/>
<path style=" stroke:none;fill-rule:nonzero;fill:rgb(0%,0%,0%);fill-opacity:1;" d="M 74.480469 59.582031 C 71.492188 59.582031 69.0625 62.011719 69.0625 65 C 69.0625 67.988281 71.492188 70.417969 74.480469 70.417969 C 77.464844 70.417969 79.894531 67.988281 79.894531 65 C 79.894531 62.011719 77.464844 59.582031 74.480469 59.582031 Z M 74.480469 59.582031 "/>
</g>
</svg>
