<?xml version="1.0" encoding="UTF-8"?>
<svg xmlns="http://www.w3.org/2000/svg" xmlns:xlink="http://www.w3.org/1999/xlink" width="130px" height="px" viewBox="0 0 130 130" version="1.1">
<g id="surface1">
<path style=" stroke:none;fill-rule:nonzero;fill:rgb(0%,0%,0%);fill-opacity:1;" d="M 89.375 35.75 C 85.792969 35.75 82.875 38.664062 82.875 42.25 C 82.875 45.835938 85.789062 48.75 89.375 48.75 C 92.960938 48.75 95.875 45.835938 95.875 42.25 C 95.875 38.664062 92.960938 35.75 89.375 35.75 Z M 89.375 35.75 "/>
<path style=" stroke:none;fill-rule:nonzero;fill:rgb(0%,0%,0%);fill-opacity:1;" d="M 89.375 17.875 C 75.933594 17.875 65 28.808594 65 42.25 C 65 55.691406 75.933594 66.625 89.375 66.625 C 102.816406 66.625 113.75 55.691406 113.75 42.25 C 113.75 28.808594 102.816406 17.875 89.375 17.875 Z M 89.375 56.875 C 81.3125 56.875 74.75 50.3125 74.75 42.25 C 74.75 34.1875 81.3125 27.625 89.375 27.625 C 97.4375 27.625 104 34.1875 104 42.25 C 104 50.3125 97.4375 56.875 89.375 56.875 Z M 89.375 56.875 "/>
<path style=" stroke:none;fill-rule:nonzero;fill:rgb(0%,0%,0%);fill-opacity:1;" d="M 48.75 1.847656 C 21.457031 4.320312 0 27.324219 0 55.25 L 0 60.125 L 19.851562 60.125 C 22.003906 75.125 33.953125 87.003906 48.984375 89.058594 C 51.273438 111.117188 69.972656 128.375 92.625 128.375 L 130 128.375 L 130 1.625 Z M 48.75 79.132812 C 39.214844 77.191406 31.683594 69.660156 29.742188 60.125 L 48.75 60.125 Z M 48.75 50.375 L 10.019531 50.375 C 12.273438 30.070312 28.445312 13.898438 48.75 11.644531 Z M 120.25 118.625 L 92.625 118.625 C 73.808594 118.625 58.5 103.316406 58.5 84.5 L 58.5 11.375 L 120.25 11.375 Z M 120.25 118.625 "/>
</g>
</svg>
