<?xml version="1.0" encoding="UTF-8"?>
<svg xmlns="http://www.w3.org/2000/svg" xmlns:xlink="http://www.w3.org/1999/xlink" width="130px" height="px" viewBox="0 0 130 130" version="1.1">
<g id="surface1">
<path style=" stroke:none;fill-rule:nonzero;fill:rgb(0%,0%,0%);fill-opacity:1;" d="M 43.332031 0 C 33.761719 0 26 7.761719 26 17.332031 L 26 26 C 26 35.574219 33.761719 43.332031 43.332031 43.332031 C 52.90625 43.332031 60.667969 35.574219 60.667969 26 L 60.667969 17.332031 C 60.667969 7.761719 52.90625 0 43.332031 0 Z M 43.332031 0 "/>
<path style=" stroke:none;fill-rule:nonzero;fill:rgb(0%,0%,0%);fill-opacity:1;" d="M 86.667969 0 C 77.09375 0 69.332031 7.761719 69.332031 17.332031 L 69.332031 26 C 69.332031 35.574219 77.09375 43.332031 86.667969 43.332031 C 96.238281 43.332031 104 35.574219 104 26 L 104 17.332031 C 104 7.761719 96.238281 0 86.667969 0 Z M 86.667969 0 "/>
<path style=" stroke:none;fill-rule:nonzero;fill:rgb(0%,0%,0%);fill-opacity:1;" d="M 17.332031 43.332031 C 7.761719 43.332031 0 51.09375 0 60.667969 L 0 65 C 0 74.574219 7.761719 82.332031 17.332031 82.332031 C 26.90625 82.332031 34.667969 74.574219 34.667969 65 L 34.667969 60.667969 C 34.667969 51.09375 26.90625 43.332031 17.332031 43.332031 Z M 17.332031 43.332031 "/>
<path style=" stroke:none;fill-rule:nonzero;fill:rgb(0%,0%,0%);fill-opacity:1;" d="M 112.667969 43.332031 C 103.09375 43.332031 95.332031 51.09375 95.332031 60.667969 L 95.332031 65 C 95.332031 74.574219 103.09375 82.332031 112.667969 82.332031 C 122.238281 82.332031 130 74.574219 130 65 L 130 60.667969 C 130 51.09375 122.238281 43.332031 112.667969 43.332031 Z M 112.667969 43.332031 "/>
<path style=" stroke:none;fill-rule:nonzero;fill:rgb(0%,0%,0%);fill-opacity:1;" d="M 83.308594 67.417969 C 73.820312 55.894531 56.179688 55.894531 46.691406 67.417969 L 21.402344 98.125 C 10.933594 110.835938 19.976562 130 36.445312 130 C 38.796875 130 41.117188 129.453125 43.222656 128.398438 L 46.339844 126.839844 C 58.085938 120.96875 71.914062 120.96875 83.660156 126.839844 L 86.777344 128.398438 C 88.882812 129.453125 91.203125 130 93.554688 130 C 110.023438 130 119.066406 110.835938 108.597656 98.125 Z M 83.308594 67.417969 "/>
</g>
</svg>
